<svg xmlns="http://www.w3.org/2000/svg" viewBox="0 0 650.35 105"><defs><style>.cls-1{fill:#8c7851;}.cls-2{fill:#f9f4ef;stroke:#8c7851;stroke-miterlimit:10;stroke-width:5px;}</style></defs><g id="レイヤー_2" data-name="レイヤー 2"><g id="レイヤー_3" data-name="レイヤー 3"><path class="cls-1" d="M108,30.56c0-2,1.61-3.4,3.65-3.74a44.08,44.08,0,0,1,7.46-.76C138,26.06,146.52,41,146.52,56.6S138,87.14,119.11,87.14a43.08,43.08,0,0,1-7.46-.76c-2-.34-3.65-1.7-3.65-3.73Zm7.55,49.88a19.61,19.61,0,0,0,4.33.43c12.47,0,18.92-11.54,18.92-24.27s-6.45-24.26-18.92-24.26a19.57,19.57,0,0,0-4.33.42Z"/><path class="cls-1" d="M175.61,82c-2,3.39-5.68,5.17-10.18,5.17-8.9,0-14-6.7-14-15.27,0-8.4,5-15.27,14.25-15.27a11.57,11.57,0,0,1,9.76,4.58V60a3.32,3.32,0,0,1,3.47-3.4,3.08,3.08,0,0,1,3.23,3.4V83.75a3,3,0,0,1-3.23,3.39,3.09,3.09,0,0,1-3.31-3.39Zm-.25-10.1c0-5-3-9.24-8.4-9.24s-8.48,4.15-8.48,9.33,3.14,9.16,8.4,9.16C172.39,81.12,175.36,76.88,175.36,71.87Z"/><path class="cls-1" d="M193.43,53a4.16,4.16,0,1,1,4.16-4.16A4,4,0,0,1,193.43,53ZM190,60.17c0-2.21,1.18-3.57,3.39-3.57s3.39,1.36,3.39,3.57V77.39c0,2.54.26,4,2.38,4.15,1,.09,1.78.68,1.78,2.8s-1.1,2.8-3.48,2.8c-5.85,0-7.46-3.73-7.46-8.82Z"/><path class="cls-1" d="M206.49,86.3a2.76,2.76,0,0,1-2.88-2.89c0-1.27.85-2.46,2.12-3.9L218,63.3H207.17a2.67,2.67,0,0,1-2.88-2.88,2.71,2.71,0,0,1,2.88-2.88h16.55a2.76,2.76,0,0,1,2.88,2.88c0,1.36-1.19,2.71-1.87,3.48L212.26,80.53H224.9a2.71,2.71,0,0,1,2.89,2.88,2.68,2.68,0,0,1-2.89,2.89Z"/><path class="cls-1" d="M240.09,73.31c0,5.69,2.29,8.23,6.53,8.23,4.07,0,6.79-2.71,6.79-8.23V60c0-2.29,1.19-3.4,3.39-3.4a3,3,0,0,1,3.39,3.4V83.75c0,2.12-1.35,3.39-3.56,3.39s-3.22-1.1-3.22-3.39v-.93a10.78,10.78,0,0,1-8.74,4.32c-8.06,0-11.37-5.68-11.37-14V60a3.14,3.14,0,0,1,3.48-3.4,3.06,3.06,0,0,1,3.31,3.4Z"/><path class="cls-1" d="M281.06,56.6c0-18.41,12.9-30.54,29.87-30.54s29.86,12.13,29.86,30.54-13,30.54-29.86,30.54S281.06,75.1,281.06,56.6Zm52,0c0-14.93-9.42-24.26-22.14-24.26S288.7,41.67,288.7,56.6s9.5,24.27,22.23,24.27S333.07,71.53,333.07,56.6Z"/><path class="cls-1" d="M367.85,70.43c0-5.68-2.29-8.23-6.53-8.23-4.07,0-6.79,2.72-6.79,8.23V83.75c0,2.29-1.19,3.39-3.39,3.39a3,3,0,0,1-3.4-3.39V60c0-2.13,1.36-3.4,3.57-3.4s3.22,1.11,3.22,3.4v1a10.51,10.51,0,0,1,8.74-4.41c8.06,0,11.37,5.69,11.37,14V83.75a3.14,3.14,0,0,1-3.48,3.39,3.05,3.05,0,0,1-3.31-3.39Z"/><path class="cls-1" d="M381.85,27.5c0-2.46,1.53-3.56,3.31-3.56a3.27,3.27,0,0,1,3.48,3.56V77.39c0,2.54.25,4,2.37,4.15,1,.09,1.78.68,1.78,2.8s-1.1,2.8-3.48,2.8c-5.85,0-7.46-3.73-7.46-8.82Z"/><path class="cls-1" d="M400.77,53a4.16,4.16,0,1,1,4.15-4.16A4,4,0,0,1,400.77,53Zm-3.4,7.13c0-2.21,1.19-3.57,3.4-3.57s3.39,1.36,3.39,3.57V77.39c0,2.54.26,4,2.38,4.15,1,.09,1.78.68,1.78,2.8s-1.11,2.8-3.48,2.8c-5.85,0-7.47-3.73-7.47-8.82Z"/><path class="cls-1" d="M432.92,70.43c0-5.68-2.29-8.23-6.53-8.23-4.08,0-6.79,2.72-6.79,8.23V83.75c0,2.29-1.19,3.39-3.39,3.39a3,3,0,0,1-3.4-3.39V60c0-2.13,1.36-3.4,3.57-3.4s3.22,1.11,3.22,3.4v1a10.51,10.51,0,0,1,8.74-4.41c8.06,0,11.37,5.69,11.37,14V83.75a3.15,3.15,0,0,1-3.48,3.39,3.05,3.05,0,0,1-3.31-3.39Z"/><path class="cls-1" d="M452.77,73.57c.26,4.67,3.73,8.31,9.67,8.31a14.51,14.51,0,0,0,8-2.29,2.75,2.75,0,0,1,4.15,2.29,2.69,2.69,0,0,1-1.35,2.29c-2.63,1.79-6.88,3-11.46,3-11.36,0-16.2-7.21-16.2-15.1,0-8.14,5.17-15.44,15-15.44,9.33,0,14.59,6.37,14.59,13.92,0,1.69-1.1,3-3.57,3ZM468.64,69a7.92,7.92,0,0,0-15.78,0Z"/><path class="cls-1" d="M497.14,29.79a3.5,3.5,0,0,1,3.65-3.73,3.58,3.58,0,0,1,3.81,3.73V86.72c0,10.94-3.13,15.78-11,15.78-2.63,0-5.26-.51-5.26-3.22a3.06,3.06,0,0,1,3.13-3.06h.94c4,0,4.75-2.63,4.75-10.52Z"/><path class="cls-1" d="M520.64,73.31c0,5.69,2.29,8.23,6.53,8.23,4.07,0,6.79-2.71,6.79-8.23V60c0-2.29,1.19-3.4,3.39-3.4a3.06,3.06,0,0,1,3.4,3.4V83.75c0,2.12-1.36,3.39-3.57,3.39S534,86,534,83.75v-.93a10.78,10.78,0,0,1-8.74,4.32c-8.06,0-11.37-5.68-11.37-14V60a3.14,3.14,0,0,1,3.48-3.4,3.06,3.06,0,0,1,3.31,3.4Z"/><path class="cls-1" d="M571,82.22c-2.12,3.23-5.69,4.92-10.1,4.92-8.82,0-13.91-6.7-13.91-15.27,0-8.4,5-15.27,14.25-15.27a11.77,11.77,0,0,1,9.67,4.5l-.17-33.77a3.16,3.16,0,0,1,3.4-3.39,3.12,3.12,0,0,1,3.39,3.39V83.75a3.06,3.06,0,0,1-3.31,3.39A3.11,3.11,0,0,1,571,83.75Zm-.09-10.35c0-5.09-2.88-9.41-8.4-9.41s-8.4,4.24-8.4,9.5,3,9.33,8.4,9.33S570.86,77,570.86,71.87Z"/><path class="cls-1" d="M607.85,82.05c-2,3.31-5.68,5.09-10.09,5.09-8.83,0-13.92-6.7-13.92-15.27,0-8.4,5-15.27,14.26-15.27a11.62,11.62,0,0,1,9.67,4.58v-1.1a3.16,3.16,0,0,1,3.31-3.48,3.22,3.22,0,0,1,3.39,3.48V85.79c0,10.94-6.79,15.61-16.8,15.61-5.09,0-9.76-1.11-12.64-3.4a2.85,2.85,0,0,1,2.12-5.26,17.37,17.37,0,0,0,10.35,2.89c7.21,0,10.27-4.16,10.44-10.52Zm-.08-10.18c0-5.09-2.89-9.41-8.4-9.41S591,66.7,591,72s3,9.33,8.4,9.33S607.77,77,607.77,71.87Z"/><path class="cls-1" d="M628,73.57c.25,4.67,3.73,8.31,9.67,8.31a14.47,14.47,0,0,0,8-2.29,2.76,2.76,0,0,1,4.16,2.29,2.68,2.68,0,0,1-1.36,2.29c-2.63,1.79-6.87,3-11.45,3-11.37,0-16.2-7.21-16.2-15.1,0-8.14,5.17-15.44,15-15.44,9.33,0,14.59,6.37,14.59,13.92,0,1.69-1.1,3-3.56,3ZM643.82,69A7.92,7.92,0,0,0,628,69Z"/><rect class="cls-2" x="2.5" y="2.5" width="71" height="100" rx="35.5"/><path class="cls-1" d="M38,92.5A25.53,25.53,0,0,1,12.5,67a2.5,2.5,0,0,1,5,0,20.5,20.5,0,0,0,41,0V44a2.5,2.5,0,0,1,5,0V67A25.53,25.53,0,0,1,38,92.5Z"/><rect class="cls-1" x="58.5" y="28.5" width="5" height="9" rx="2.5"/></g></g></svg>